<svg viewBox="0 0 19 19" xmlns="http://www.w3.org/2000/svg"
    xmlns:svg="http://www.w3.org/2000/svg">
    <path
        d="m18.9,9.5a9.44,9.44 0 1 1 -9.44,-9.44a9.44,9.44 0 0 1 9.44,9.44zm-3.39,-2.7a0.94,0.94 0 0 0 -0.94,-0.94l-2.43,0l0,-0.3a0.94,0.94 0 0 0 -0.94,-0.94l-3.46,0a0.94,0.94 0 0 0 -0.94,0.94l0,0.3l-2.42,0a0.94,0.94 0 0 0 -0.94,0.94l0,6.1a0.94,0.94 0 0 0 0.94,0.94l10.19,0a0.94,0.94 0 0 0 0.96,-0.94l0,-6.1zm-3.19,3.05a2.87,2.87 0 1 1 -2.86,-2.86a2.87,2.87 0 0 1 2.86,2.86zm-4.78,0a1.92,1.92 0 1 0 1.92,-1.91a1.92,1.92 0 0 0 -1.92,1.91zm3.25,-4.64a0.47,0.47 0 1 0 0.47,0.47a0.47,0.47 0 0 0 -0.47,-0.47z"/>
</svg>