<?xml version="1.0" encoding="utf-8"?>
<svg xmlns="http://www.w3.org/2000/svg" viewBox="0 0 235.869 268.576" xmlns:bx="https://boxy-svg.com" width="235.869px" height="268.576px"><defs/><rect x="20.05" y="97.443" width="192.375" height="156.221" style="stroke: rgb(0, 0, 0); fill: rgb(153, 173, 139);"/><g transform="matrix(0.1, 0, 0, -0.1, -11.7865, 284.691)" fill="#000000" stroke="none"><path d="M1183 2836 c-126 -29 -226 -94 -306 -198 -82 -108 -107 -203 -107 -400 l0 -118 -211 0 c-136 0 -218 -4 -232 -11 -38 -19 -76 -61 -81 -88 -6 -27 -44 -517 -71 -906 -8 -121 -24 -334 -35 -473 -11 -140 -21 -281 -22 -315 -2 -78 18 -120 72 -147 39 -20 53 -20 1119 -18 1073 3 1080 3 1108 24 15 11 36 37 46 57 21 42 26 -48 -48 927 -67 869 -65 851 -81 882 -8 16 -29 38 -47 48 -29 18 -51 20 -249 20 l-218 0 0 128 c0 147 -13 212 -65 318 -39 80 -118 167 -188 208 -110 65 -263 89 -384 62z m264 -161 c75 -34 155 -113 187 -184 35 -78 46 -143 46 -267 l0 -104 -381 0 -381 0 4 153 c3 141 5 156 30 207 53 109 141 185 248 215 74 20 178 12 247 -20z m81 -1030 c125 -58 327 -151 449 -208 122 -56 219 -105 215 -109 -7 -7 -474 -220 -728 -332 -83 -36 -160 -66 -170 -66 -10 0 -167 67 -349 149 l-330 148 -3 -155 c-2 -149 -2 -156 20 -179 28 -30 31 -93 5 -121 -17 -19 -17 -24 13 -142 17 -68 29 -129 26 -136 -4 -11 -30 -14 -105 -14 -55 0 -102 4 -106 9 -3 5 10 66 29 136 35 125 35 126 15 146 -28 28 -26 89 6 123 25 27 25 30 25 197 l0 170 -75 34 c-41 18 -75 37 -75 40 0 3 19 14 43 24 52 23 641 294 757 350 47 22 91 40 98 40 6 1 114 -46 240 -104z m-484 -731 c133 -59 246 -107 251 -107 6 0 102 41 215 90 210 93 280 123 286 123 2 0 4 -85 4 -190 l0 -190 -27 -6 c-178 -38 -312 -93 -415 -171 -64 -49 -67 -50 -83 -33 -30 33 -149 107 -215 134 -56 23 -133 45 -242 70 l-27 6 -3 190 c-2 106 1 190 6 190 5 0 117 -48 250 -106z" style="fill: rgb(30, 65, 53);"/></g></svg>